# This file uses centimeters as units for non-parametric coordinates.

mtllib Modular_doorway_export_0001.mtl
g default
v -0.640333 -2.500000 2.499998
v 0.640333 -2.500000 2.499998
v -0.500000 2.500000 2.499998
v 0.500000 2.500000 2.499998
v -0.500000 2.500000 -2.500000
v 0.500000 2.500000 -2.500000
v -0.640333 -2.500000 -2.500000
v 0.640333 -2.500000 -2.500000
v 0.640333 -0.997849 2.500000
v -0.640333 -0.997849 2.500000
v -0.640333 -0.997849 -2.500000
v 0.640333 -0.997849 -2.500000
v 0.500000 -0.551311 2.500000
v -0.500000 -0.551311 2.500000
v -0.500000 -0.551311 -2.500000
v 0.500000 -0.551311 -2.500000
v 0.500000 2.500000 -1.406266
v -0.500000 2.500000 -1.406266
v -0.500000 -0.551311 -1.406265
v -0.640333 -0.997849 -1.406265
v -0.640333 -2.500000 -1.406266
v 0.640333 -2.500000 -1.406266
v 0.640333 -0.997849 -1.406265
v 0.500000 -0.551311 -1.406265
v 0.500000 2.500000 1.406264
v -0.500000 2.500000 1.406264
v -0.500000 -0.551311 1.406266
v -0.640333 -0.997849 1.406266
v -0.640333 -2.500000 1.406264
v 0.640333 -2.500000 1.406264
v 0.640333 -0.997849 1.406266
v 0.500000 -0.551311 1.406266
v 0.500000 1.943276 1.406265
v 0.500000 1.943276 2.499998
v -0.500000 1.943276 2.499998
v -0.500000 1.943276 1.406265
v -0.500000 1.943276 -1.406266
v -0.500000 1.943276 -2.500000
v 0.500000 1.943276 -2.500000
v 0.500000 1.943276 -1.406266
vt 0.375000 0.000000
vt 0.625000 0.000000
vt 0.375000 0.250000
vt 0.625000 0.250000
vt 0.375000 0.500000
vt 0.625000 0.500000
vt 0.375000 0.750000
vt 0.625000 0.750000
vt 0.375000 1.000000
vt 0.625000 1.000000
vt 0.875000 0.000000
vt 0.875000 0.250000
vt 0.125000 0.000000
vt 0.125000 0.250000
vt 0.625000 0.075108
vt 0.375000 0.075108
vt 0.125000 0.075108
vt 0.375000 0.674892
vt 0.625000 0.674892
vt 0.875000 0.075108
vt 0.625000 0.097434
vt 0.375000 0.097434
vt 0.125000 0.097434
vt 0.375000 0.652566
vt 0.625000 0.652566
vt 0.875000 0.097434
vt 0.625000 0.416667
vt 0.791667 0.250000
vt 0.208333 0.250000
vt 0.375000 0.416667
vt 0.208333 0.097434
vt 0.208333 0.075108
vt 0.208333 0.000000
vt 0.375000 0.833333
vt 0.625000 0.833333
vt 0.791667 0.000000
vt 0.791667 0.075108
vt 0.791667 0.097434
vt 0.625000 0.333333
vt 0.708333 0.250000
vt 0.291667 0.250000
vt 0.375000 0.333333
vt 0.291667 0.097434
vt 0.291667 0.075108
vt 0.291667 0.000000
vt 0.375000 0.916667
vt 0.625000 0.916667
vt 0.708333 0.000000
vt 0.708333 0.075108
vt 0.708333 0.097434
vt 0.708333 0.222164
vt 0.625000 0.222164
vt 0.375000 0.222164
vt 0.291667 0.222164
vt 0.208333 0.222164
vt 0.125000 0.222164
vt 0.375000 0.527836
vt 0.625000 0.527836
vt 0.875000 0.222164
vt 0.791667 0.222164
vn 0.000000 -0.000002 1.000000
vn 0.000000 -0.000002 1.000000
vn 0.000000 -0.000001 1.000000
vn 0.000000 -0.000001 1.000000
vn 0.000000 1.000000 0.000000
vn 0.000000 1.000000 0.000000
vn 0.000000 1.000000 0.000000
vn 0.000000 1.000000 0.000000
vn 0.000000 0.000000 -1.000000
vn 0.000000 0.000000 -1.000000
vn 0.000000 0.000000 -1.000000
vn 0.000000 0.000000 -1.000000
vn 0.000000 -1.000000 0.000000
vn 0.000000 -1.000000 0.000000
vn 0.000000 -1.000000 0.000000
vn 0.000000 -1.000000 0.000000
vn 1.000000 -0.000000 0.000000
vn 1.000000 -0.000000 0.000000
vn 0.997417 0.071828 0.000000
vn 0.997417 0.071828 0.000000
vn -1.000000 0.000000 0.000000
vn -1.000000 0.000000 0.000000
vn -0.997417 0.071828 0.000000
vn -0.997417 0.071828 0.000000
vn 0.000000 0.000001 1.000000
vn 0.000000 0.000001 1.000000
vn -0.998864 0.047660 0.000000
vn -0.998864 0.047660 0.000000
vn 0.000000 0.000000 -1.000000
vn 0.000000 0.000000 -1.000000
vn 0.998864 0.047660 0.000000
vn 0.998864 0.047660 0.000000
vn 0.000000 0.000001 1.000000
vn 0.000000 0.000001 1.000000
vn -1.000000 0.000000 0.000000
vn -1.000000 -0.000000 0.000000
vn 0.000000 0.000000 -1.000000
vn 0.000000 0.000000 -1.000000
vn 1.000000 -0.000000 0.000000
vn 1.000000 0.000000 0.000000
vn 0.000000 1.000000 0.000000
vn 0.000000 1.000000 0.000000
vn 0.000000 1.000000 0.000000
vn 0.000000 1.000000 0.000000
vn -0.998864 0.047660 0.000000
vn -0.998864 0.047660 0.000000
vn -1.000000 -0.000000 0.000000
vn -1.000000 0.000000 0.000000
vn -0.997417 0.071828 0.000000
vn -0.997417 0.071828 0.000000
vn -1.000000 0.000000 0.000000
vn -1.000000 0.000000 0.000000
vn 0.000000 -1.000000 0.000000
vn 0.000000 -1.000000 0.000000
vn 0.000000 -1.000000 0.000000
vn 0.000000 -1.000000 0.000000
vn 0.997417 0.071828 0.000000
vn 1.000000 0.000000 0.000000
vn 1.000000 0.000000 0.000000
vn 0.997417 0.071828 0.000000
vn 0.998864 0.047660 0.000000
vn 0.998864 0.047660 0.000000
vn 1.000000 -0.000000 0.000000
vn 1.000000 0.000000 0.000000
vn 1.000000 -0.000000 0.000000
vn 1.000000 0.000000 0.000000
vn 0.000000 0.000001 1.000000
vn 0.000000 0.000001 1.000000
vn -1.000000 0.000000 0.000000
vn -1.000000 -0.000000 0.000000
vn -1.000000 -0.000000 0.000000
vn -1.000000 0.000000 0.000000
vn 0.000000 0.000000 -1.000000
vn 0.000000 0.000000 -1.000000
vn 1.000000 -0.000000 0.000000
vn 1.000000 0.000000 0.000000
vn 0.000000 -0.000000 -1.000000
vn 0.000000 -0.000000 -1.000000
vn 0.000000 -0.000000 -1.000000
vn 0.000000 -0.000000 -1.000000
vn 0.000000 0.000000 1.000000
vn 0.000000 0.000000 1.000000
vn 0.000000 0.000000 1.000000
vn 0.000000 0.000000 1.000000
vn 0.000000 0.000000 1.000000
vn 0.000000 0.000000 1.000000
vn 0.000000 0.000000 1.000000
vn 0.000000 0.000000 1.000000
vn 0.000000 0.000000 -1.000000
vn 0.000000 0.000000 -1.000000
vn 0.000000 0.000000 -1.000000
vn 0.000000 0.000000 -1.000000
vn 0.000000 -0.000001 1.000000
vn 0.000000 -0.000001 1.000000
vn 0.000000 -0.000001 1.000000
vn 0.000000 -0.000001 1.000000
vn 0.000000 0.000001 -1.000000
vn 0.000000 0.000001 -1.000000
vn 0.000000 0.000001 -1.000000
vn 0.000000 0.000001 -1.000000
s 1
g pCube1
usemtl initialShadingGroup
f 1/1/1 2/2/2 9/15/3 10/16/4
s 2
f 3/3/5 4/4/6 25/39/7 26/42/8
s 3
f 11/18/9 12/19/10 8/8/11 7/7/12
s 4
f 29/46/13 30/47/14 2/10/15 1/9/16
s 5
f 2/2/17 30/48/18 31/49/19 9/15/20
s 6
f 29/45/21 1/1/22 10/16/23 28/44/24
s 1
f 10/16/4 9/15/3 13/21/25 14/22/26
s 6
f 28/44/24 10/16/23 14/22/27 27/43/28
s 3
f 15/24/29 16/25/30 12/19/10 11/18/9
s 5
f 9/15/20 31/49/19 32/50/31 13/21/32
s 1
f 14/22/26 13/21/25 34/52/33 35/53/34
s 6
f 27/43/28 14/22/27 35/53/35 36/54/36
s 3
f 38/57/37 39/58/38 16/25/30 15/24/29
s 5
f 13/21/32 32/50/31 33/51/39 34/52/40
s 2
f 18/30/41 17/27/42 6/6/43 5/5/44
s 6
f 15/23/45 19/31/46 37/55/47 38/56/48
f 11/17/49 20/32/50 19/31/46 15/23/45
f 7/13/51 21/33/52 20/32/50 11/17/49
s 8
f 7/7/53 8/8/54 22/35/55 21/34/56
s 5
f 23/37/57 22/36/58 8/11/59 12/20/60
f 24/38/61 23/37/57 12/20/60 16/26/62
f 40/60/63 24/38/61 16/26/62 39/59/64
s 2
f 26/42/8 25/39/7 17/27/42 18/30/41
s 5
f 34/52/40 33/51/39 25/40/65 4/4/66
s 1
f 35/53/34 34/52/33 4/4/67 3/3/68
s 6
f 36/54/36 35/53/35 3/3/69 26/41/70
f 37/55/47 36/54/36 26/41/70 18/29/71
f 38/56/48 37/55/47 18/29/71 5/14/72
s 3
f 5/5/73 6/6/74 39/58/38 38/57/37
s 5
f 17/28/75 40/60/63 39/59/64 6/12/76
f 25/40/65 33/51/39 40/60/63 17/28/75
s off
f 33/51/77 32/50/78 27/43/79 36/54/80
f 24/38/81 40/60/82 37/55/83 19/31/84
f 19/31/85 20/32/86 23/37/87 24/38/88
f 28/44/89 27/43/90 32/50/91 31/49/92
s 8
f 20/32/93 21/33/94 22/36/95 23/37/96
s 4
f 29/45/97 28/44/98 31/49/99 30/48/100
