# This file uses centimeters as units for non-parametric coordinates.

mtllib Modular_wall_export_0001.mtl
g default
v -0.640333 -2.500000 2.499998
v 0.640333 -2.500000 2.499998
v -0.500000 2.500000 2.499998
v 0.500000 2.500000 2.499998
v -0.500000 2.500000 -2.500000
v 0.500000 2.500000 -2.500000
v -0.640333 -2.500000 -2.500000
v 0.640333 -2.500000 -2.500000
v 0.640333 -0.997849 2.500000
v -0.640333 -0.997849 2.500000
v -0.640333 -0.997849 -2.500000
v 0.640333 -0.997849 -2.500000
v 0.500000 -0.551311 2.500000
v -0.500000 -0.551311 2.500000
v -0.500000 -0.551311 -2.500000
v 0.500000 -0.551311 -2.500000
vt 0.375000 0.000000
vt 0.625000 0.000000
vt 0.375000 0.250000
vt 0.625000 0.250000
vt 0.375000 0.500000
vt 0.625000 0.500000
vt 0.375000 0.750000
vt 0.625000 0.750000
vt 0.375000 1.000000
vt 0.625000 1.000000
vt 0.875000 0.000000
vt 0.875000 0.250000
vt 0.125000 0.000000
vt 0.125000 0.250000
vt 0.625000 0.075108
vt 0.375000 0.075108
vt 0.125000 0.075108
vt 0.375000 0.674892
vt 0.625000 0.674892
vt 0.875000 0.075108
vt 0.625000 0.097434
vt 0.375000 0.097434
vt 0.125000 0.097434
vt 0.375000 0.652566
vt 0.625000 0.652566
vt 0.875000 0.097434
vn 0.000000 -0.000002 1.000000
vn 0.000000 -0.000002 1.000000
vn 0.000000 -0.000001 1.000000
vn 0.000000 -0.000001 1.000000
vn 0.000000 1.000000 0.000000
vn 0.000000 1.000000 0.000000
vn 0.000000 1.000000 0.000000
vn 0.000000 1.000000 0.000000
vn 0.000000 0.000000 -1.000000
vn 0.000000 0.000000 -1.000000
vn 0.000000 0.000000 -1.000000
vn 0.000000 0.000000 -1.000000
vn 0.000000 -1.000000 0.000000
vn 0.000000 -1.000000 0.000000
vn 0.000000 -1.000000 0.000000
vn 0.000000 -1.000000 0.000000
vn 1.000000 0.000000 0.000000
vn 1.000000 0.000000 0.000000
vn 0.997417 0.071828 0.000000
vn 0.997417 0.071828 0.000000
vn -1.000000 0.000000 0.000000
vn -1.000000 0.000000 0.000000
vn -0.997417 0.071828 0.000000
vn -0.997417 0.071828 0.000000
vn 0.000000 0.000001 1.000000
vn 0.000000 0.000001 1.000000
vn -0.999196 0.040088 0.000000
vn -0.999196 0.040088 0.000000
vn 0.000000 0.000000 -1.000000
vn 0.000000 0.000000 -1.000000
vn 0.999196 0.040088 0.000000
vn 0.999196 0.040088 0.000000
vn 0.000000 0.000001 1.000000
vn 0.000000 0.000001 1.000000
vn -1.000000 0.000000 0.000000
vn -1.000000 0.000000 0.000000
vn 0.000000 0.000000 -1.000000
vn 0.000000 0.000000 -1.000000
vn 1.000000 0.000000 0.000000
vn 1.000000 0.000000 0.000000
s 1
g pCube1
usemtl initialShadingGroup
f 1/1/1 2/2/2 9/15/3 10/16/4
s off
f 3/3/5 4/4/6 6/6/7 5/5/8
s 2
f 11/18/9 12/19/10 8/8/11 7/7/12
s off
f 7/7/13 8/8/14 2/10/15 1/9/16
s 3
f 2/2/17 8/11/18 12/20/19 9/15/20
s 4
f 7/13/21 1/1/22 10/16/23 11/17/24
s 1
f 10/16/4 9/15/3 13/21/25 14/22/26
s 4
f 11/17/24 10/16/23 14/22/27 15/23/28
s 2
f 15/24/29 16/25/30 12/19/10 11/18/9
s 3
f 9/15/20 12/20/19 16/26/31 13/21/32
s 1
f 14/22/26 13/21/25 4/4/33 3/3/34
s 4
f 15/23/28 14/22/27 3/3/35 5/14/36
s 2
f 5/5/37 6/6/38 16/25/30 15/24/29
s 3
f 13/21/32 16/26/31 6/12/39 4/4/40
