# This file uses centimeters as units for non-parametric coordinates.

mtllib Rachel_Curnutt_concept_horror_monster_Friggy_export_0001.mtl
g default
v 0.000000 0.001636 0.146447
v 0.707107 0.051832 -0.353553
v 0.000000 -0.146447 0.853553
v 0.707107 0.353553 0.353553
v -0.707107 0.353553 0.353553
v -0.707107 0.051832 -0.353553
v 0.000000 0.146447 -0.853553
v 0.000000 0.012276 0.157257
v 0.670197 0.057232 -0.290545
v 0.670197 0.327454 0.342743
v 0.000000 -0.120347 0.790545
v -0.670197 0.057232 -0.290545
v -0.670197 0.327454 0.342743
v -0.669512 0.053013 -0.353553
v 0.000000 0.142597 -0.826970
v 0.669512 0.053013 -0.353553
v 0.000000 0.005486 0.119863
v 0.018810 -0.107779 0.777976
v 0.019846 -0.132413 0.839520
v -0.687261 0.367587 0.339520
v -0.687261 0.054488 -0.367587
v -0.650721 0.055528 -0.366840
v 0.018791 0.006820 0.106576
v 0.019846 0.003045 0.132413
v 0.018810 0.013538 0.144689
v -0.019846 -0.132413 0.839520
v -0.018810 -0.107779 0.777976
v -0.018810 0.013538 0.144689
v -0.019846 0.003045 0.132413
v -0.018791 0.006820 0.106576
v -0.632010 0.054166 -0.353610
v 0.000080 0.008181 0.093345
v -0.136258 0.757204 -0.050097
v 0.138757 0.755437 -0.048331
v 0.000000 0.767690 -0.232310
v 0.022876 -0.269822 1.097982
v -0.900123 0.382837 0.445324
v 0.919969 0.364519 0.463641
v 0.178092 0.889105 -0.021524
v -0.180890 0.891411 -0.023830
v -0.003030 0.094179 -1.112015
v 0.919969 -0.029323 -0.459357
v -0.003030 0.905098 -0.301096
v -0.900123 -0.025856 -0.477675
v 0.079519 1.248805 -0.087959
v 0.000538 1.255779 -0.192681
v 0.000000 1.611916 -0.146447
v -0.077021 1.249810 -0.088965
v -0.907998 -0.694399 0.939355
v -0.718313 -0.785812 0.881681
v -0.718313 -0.821140 1.066096
v 0.718313 -0.785812 0.881681
v 0.718313 -0.821140 1.066096
v 0.907998 -0.694399 0.939355
v -1.089567 -1.249174 1.318223
v -1.059759 -1.263539 1.309160
v -1.059759 -1.269091 1.338140
v 1.059759 -1.263539 1.309160
v 1.059759 -1.269091 1.338140
v 1.089567 -1.249174 1.318223
v 0.721189 -0.639894 0.375287
v 0.429880 -0.780281 0.286715
v 0.721189 -0.760741 0.092073
v -0.721189 -0.760741 0.092073
v -0.429880 -0.780281 0.286715
v -0.721189 -0.639894 0.375287
v 0.781673 -1.186132 0.383983
v 0.715874 -1.217842 0.363978
v 0.781673 -1.213428 0.320014
v -0.781673 -1.213428 0.320014
v -0.715874 -1.217842 0.363978
v -0.781673 -1.186132 0.383983
v -0.312927 -0.732571 -0.563662
v -0.312981 -0.670645 -0.831536
v -0.459333 -0.711385 -0.693756
v -0.465298 -1.195044 -0.900991
v -0.465314 -1.177014 -0.978985
v -0.479553 -1.188875 -0.938869
v 0.318556 -0.732652 -0.538966
v 0.324800 -0.733106 -0.534551
v 0.318529 -0.687792 -0.846109
v 0.541970 -0.717690 -0.688113
v 0.486188 -1.240598 -0.845397
v 0.488798 -1.240788 -0.843551
v 0.486177 -1.221845 -0.973798
v 0.579587 -1.234343 -0.907748
vt 0.375000 0.000000
vt 0.625000 0.000000
vt 0.375000 0.250000
vt 0.625000 0.250000
vt 0.375000 0.500000
vt 0.625000 0.500000
vt 0.375000 0.750000
vt 0.625000 0.750000
vt 0.375000 1.000000
vt 0.625000 1.000000
vt 0.875000 0.000000
vt 0.875000 0.250000
vt 0.125000 0.000000
vt 0.125000 0.250000
vt 0.375000 0.000000
vt 0.625000 0.000000
vt 0.625000 0.250000
vt 0.375000 0.250000
vt 0.125000 0.000000
vt 0.125000 0.250000
vt 0.375000 0.750000
vt 0.625000 0.750000
vt 0.625000 1.000000
vt 0.375000 1.000000
vt 0.382017 0.250000
vt 0.382017 0.250000
vt 0.382017 0.500000
vt 0.382017 0.750000
vt 0.382017 0.750000
vt 0.382017 1.000000
vt 0.382017 0.000000
vt 0.382017 1.000000
vt 0.382017 0.000000
vt 0.367983 0.250000
vt 0.375000 0.257017
vt 0.367983 0.250000
vt 0.367983 0.000000
vt 0.367983 0.000000
vt 0.375000 0.992983
vt 0.375000 0.992983
vt 0.382017 0.756987
vt 0.382017 0.993013
vt 0.576825 0.500000
vt 0.625000 0.450942
vt 0.825942 0.250000
vt 0.625000 0.530357
vt 0.875000 0.219643
vt 0.382017 0.500000
vt 0.382017 0.250000
vt 0.625000 0.250000
vt 0.625000 0.450942
vt 0.576825 0.500000
vt 0.625000 0.000000
vt 0.875000 0.000000
vt 0.875000 0.219643
vt 0.825942 0.250000
vt 0.382017 0.750000
vt 0.625000 0.530357
vt 0.625000 0.750000
vt 0.825942 0.250000
vt 0.875000 0.219643
vt 0.576825 0.500000
vt 0.625000 0.450942
vt 0.625000 0.530357
vt 0.125000 0.250000
vt 0.367983 0.000000
vt 0.367983 0.250000
vt 0.382017 0.250000
vt 0.382017 0.000000
vt 0.625000 0.250000
vt 0.125000 0.250000
vt 0.367983 0.000000
vt 0.367983 0.250000
vt 0.382017 0.250000
vt 0.382017 0.000000
vt 0.625000 0.250000
vt 0.625000 0.250000
vt 0.382017 0.000000
vt 0.625000 0.000000
vt 0.125000 0.000000
vt 0.367983 0.000000
vt 0.125000 0.250000
vt 0.625000 0.250000
vt 0.382017 0.000000
vt 0.625000 0.000000
vt 0.125000 0.000000
vt 0.367983 0.000000
vt 0.125000 0.250000
vt 0.625000 0.750000
vt 0.382017 0.993013
vt 0.382017 0.756987
vt 0.625000 0.750000
vt 0.382017 0.993013
vt 0.382017 0.756987
vt 0.382017 1.000000
vt 0.382017 0.993013
vt 0.625000 0.750000
vt 0.625000 1.000000
vt 0.382017 1.000000
vt 0.382017 0.993013
vt 0.625000 0.750000
vt 0.625000 1.000000
vn 0.223314 -0.955727 -0.191617
vn 0.223314 -0.955727 -0.191617
vn 0.223314 -0.955727 -0.191617
vn 0.223314 -0.955727 -0.191617
vn 0.000000 0.707107 0.707107
vn 0.000000 0.707107 0.707107
vn 0.000000 0.707107 0.707107
vn 0.000000 0.707107 0.707107
vn 0.000000 0.707107 0.707107
vn -0.555189 0.762760 -0.331606
vn -0.555189 0.762760 -0.331606
vn -0.555189 0.762760 -0.331606
vn -0.555189 0.762760 -0.331606
vn 0.030206 -0.989389 -0.142113
vn 0.030201 -0.989261 -0.143006
vn 0.030043 -0.989303 -0.142748
vn 0.000077 -0.994745 -0.102381
vn 0.030206 -0.989389 -0.142113
vn 0.798424 0.078701 -0.596930
vn 0.798424 0.078701 -0.596930
vn 0.798424 0.078701 -0.596930
vn -0.223314 -0.955727 -0.191617
vn -0.223314 -0.955727 -0.191617
vn -0.223314 -0.955727 -0.191617
vn -0.223314 -0.955727 -0.191617
vn 0.463804 -0.643030 0.609425
vn 0.295503 -0.892879 0.339773
vn 0.299829 -0.888856 0.346464
vn 0.463804 -0.643030 0.609425
vn 0.472023 -0.810855 0.345990
vn 0.472023 -0.810855 0.345990
vn 0.472023 -0.810854 0.345990
vn 0.472023 -0.810854 0.345990
vn 0.439692 -0.868355 -0.229414
vn 0.351228 -0.866092 -0.355701
vn 0.351228 -0.866092 -0.355701
vn 0.446229 -0.867655 -0.219215
vn -0.295503 -0.892879 0.339773
vn -0.463805 -0.643030 0.609424
vn -0.463805 -0.643030 0.609424
vn -0.299829 -0.888856 0.346464
vn -0.351230 -0.866092 -0.355700
vn -0.439692 -0.868355 -0.229413
vn -0.446229 -0.867655 -0.219215
vn -0.351230 -0.866092 -0.355700
vn -0.472023 -0.810855 0.345990
vn -0.472023 -0.810855 0.345990
vn -0.472023 -0.810855 0.345990
vn -0.472023 -0.810855 0.345990
vn 0.031069 -0.989199 -0.143247
vn 0.031069 -0.989199 -0.143246
vn 0.031069 -0.989199 -0.143246
vn 0.031069 -0.989199 -0.143247
vn -0.031069 -0.989199 -0.143246
vn -0.031069 -0.989199 -0.143246
vn -0.031069 -0.989199 -0.143246
vn -0.031069 -0.989199 -0.143246
vn -0.031069 -0.989199 -0.143246
vn -0.031069 -0.989199 -0.143246
vn -0.031069 -0.989199 -0.143246
vn -0.031069 -0.989199 -0.143246
vn 0.031069 -0.989199 -0.143246
vn 0.031069 -0.989199 -0.143247
vn 0.031069 -0.989199 -0.143247
vn 0.031069 -0.989199 -0.143246
vn 0.447544 -0.867497 -0.217146
vn 0.447544 -0.867497 -0.217146
vn -0.005330 0.157883 0.987443
vn -0.005330 0.157883 0.987443
vn -0.005330 0.157883 0.987443
vn -0.800623 0.075948 -0.594335
vn -0.800623 0.075948 -0.594335
vn -0.800623 0.075948 -0.594335
vn 0.031069 -0.989199 -0.143246
vn 0.031069 -0.989199 -0.143246
vn 0.030193 -0.989050 -0.144458
vn -0.031069 -0.989199 -0.143246
vn -0.031069 -0.989199 -0.143246
vn 0.293600 -0.894619 0.336834
vn 0.293600 -0.894619 0.336834
vn 0.308165 -0.875006 0.373362
vn 0.308165 -0.875006 0.373362
vn 0.308165 -0.875006 0.373362
vn -0.447544 -0.867497 -0.217146
vn -0.447545 -0.867497 -0.217146
vn -0.468654 -0.867607 -0.166199
vn -0.468654 -0.867607 -0.166199
vn -0.468654 -0.867607 -0.166199
vn -0.293600 -0.894619 0.336833
vn -0.293600 -0.894619 0.336833
vn 0.031069 -0.989199 -0.143247
vn 0.031069 -0.989199 -0.143247
vn -0.029405 -0.989244 -0.143287
vn -0.029405 -0.989244 -0.143287
vn -0.029405 -0.989244 -0.143287
vn -0.029405 -0.989244 -0.143287
vn -0.000877 -0.994874 -0.101118
vn -0.000877 -0.994874 -0.101118
vn 0.174285 -0.959386 -0.221817
vn 0.174285 -0.959386 -0.221817
vn 0.174285 -0.959386 -0.221817
vn -0.308164 -0.875005 0.373364
vn -0.308164 -0.875005 0.373364
vn -0.308164 -0.875005 0.373364
vn 0.468654 -0.867607 -0.166199
vn 0.468654 -0.867607 -0.166199
vn 0.468654 -0.867607 -0.166199
vn -0.000255 0.693504 0.720453
vn -0.000255 0.693504 0.720453
vn -0.000255 0.693504 0.720453
vn -0.000255 0.693504 0.720453
vn -0.000255 0.693504 0.720453
vn 0.599422 0.657319 -0.456755
vn 0.599422 0.657319 -0.456755
vn 0.599422 0.657319 -0.456755
vn 0.599422 0.657319 -0.456755
vn 0.599422 0.657319 -0.456755
vn -0.600301 0.654336 -0.459873
vn -0.600301 0.654336 -0.459873
vn -0.600301 0.654336 -0.459873
vn -0.600301 0.654336 -0.459873
vn -0.600301 0.654336 -0.459873
vn -0.283251 -0.848184 -0.447607
vn -0.283251 -0.848184 -0.447607
vn -0.283251 -0.848184 -0.447608
vn -0.283251 -0.848184 -0.447607
vn 0.278132 -0.846779 -0.453441
vn 0.278132 -0.846779 -0.453441
vn 0.278132 -0.846779 -0.453441
vn 0.278132 -0.846779 -0.453441
vn 0.007551 0.194493 -0.980875
vn 0.007551 0.194493 -0.980875
vn 0.007551 0.194493 -0.980875
vn 0.007551 0.194493 -0.980875
vn -0.263722 -0.944855 0.194165
vn -0.263722 -0.944855 0.194165
vn -0.263722 -0.944855 0.194165
vn -0.263722 -0.944855 0.194165
vn -0.801685 0.194880 0.565086
vn -0.801685 0.194880 0.565086
vn -0.801685 0.194880 0.565086
vn -0.801685 0.194880 0.565086
vn -0.153743 -0.908833 0.387797
vn -0.153743 -0.908833 0.387797
vn -0.153743 -0.908833 0.387797
vn -0.153743 -0.908833 0.387797
vn 0.134502 -0.906064 0.401195
vn 0.134502 -0.906064 0.401195
vn 0.134502 -0.906064 0.401195
vn 0.134502 -0.906064 0.401195
vn 0.798287 0.227381 0.557706
vn 0.798287 0.227381 0.557706
vn 0.798287 0.227381 0.557706
vn 0.798287 0.227381 0.557706
vn 0.259986 -0.947041 0.188469
vn 0.259986 -0.947041 0.188469
vn 0.259986 -0.947041 0.188469
vn 0.259986 -0.947041 0.188469
vn 0.799003 0.047787 -0.599425
vn 0.799003 0.047787 -0.599425
vn 0.799003 0.047787 -0.599425
vn 0.799003 0.047787 -0.599425
vn -0.005894 0.079361 0.996829
vn -0.005894 0.079361 0.996829
vn -0.005894 0.079361 0.996829
vn -0.005894 0.079361 0.996829
vn -0.801230 0.049300 -0.596322
vn -0.801230 0.049300 -0.596322
vn -0.801230 0.049300 -0.596322
vn -0.801230 0.049300 -0.596322
vn -0.431242 -0.377966 -0.819251
vn -0.431242 -0.377966 -0.819251
vn -0.431242 -0.377966 -0.819251
vn -0.431242 -0.377966 -0.819251
vn 0.678687 -0.721312 -0.138179
vn 0.678687 -0.721312 -0.138179
vn 0.678687 -0.721312 -0.138180
vn 0.678687 -0.721312 -0.138179
vn -0.198656 0.528224 0.825539
vn -0.198656 0.528224 0.825540
vn -0.198656 0.528224 0.825540
vn -0.198656 0.528224 0.825539
vn -0.678687 -0.721312 -0.138179
vn -0.678687 -0.721312 -0.138180
vn -0.678687 -0.721312 -0.138180
vn -0.678687 -0.721312 -0.138180
vn 0.431242 -0.377966 -0.819251
vn 0.431242 -0.377966 -0.819251
vn 0.431242 -0.377966 -0.819251
vn 0.431242 -0.377966 -0.819251
vn 0.198655 0.528224 0.825540
vn 0.198655 0.528224 0.825539
vn 0.198655 0.528224 0.825540
vn 0.198655 0.528224 0.825540
vn -0.438852 -0.404368 -0.802431
vn -0.438852 -0.404368 -0.802431
vn -0.438852 -0.404368 -0.802431
vn -0.438852 -0.404368 -0.802431
vn 0.751355 -0.648114 -0.124158
vn 0.751355 -0.648114 -0.124158
vn 0.751355 -0.648114 -0.124158
vn 0.751354 -0.648114 -0.124158
vn -0.138411 0.589024 0.796174
vn -0.138411 0.589024 0.796174
vn -0.138411 0.589024 0.796174
vn -0.138411 0.589024 0.796174
vn -0.751355 -0.648114 -0.124158
vn -0.751354 -0.648114 -0.124158
vn -0.751355 -0.648114 -0.124158
vn -0.751355 -0.648114 -0.124158
vn 0.438852 -0.404368 -0.802431
vn 0.438852 -0.404368 -0.802431
vn 0.438852 -0.404368 -0.802431
vn 0.438852 -0.404368 -0.802431
vn 0.138411 0.589024 0.796174
vn 0.138411 0.589024 0.796174
vn 0.138411 0.589024 0.796174
vn 0.138411 0.589024 0.796174
vn -0.298086 0.016395 0.954398
vn -0.298086 0.016395 0.954398
vn -0.295841 0.011250 0.955171
vn -0.296336 0.012383 0.955003
vn -0.492262 -0.393799 -0.776273
vn -0.492262 -0.393799 -0.776273
vn -0.490158 -0.401111 -0.773857
vn -0.490333 -0.400508 -0.774059
vn 0.998408 0.051885 -0.022139
vn 0.998408 0.051885 -0.022139
vn 0.997974 0.058513 -0.024967
vn 0.997764 0.061478 -0.026233
vn 0.492262 -0.393799 -0.776273
vn 0.492262 -0.393799 -0.776273
vn 0.490333 -0.400508 -0.774059
vn 0.490158 -0.401111 -0.773857
vn 0.298085 0.016395 0.954398
vn 0.298085 0.016395 0.954398
vn 0.296336 0.012383 0.955004
vn 0.295841 0.011250 0.955171
vn -0.998408 0.051884 -0.022139
vn -0.998408 0.051884 -0.022139
vn -0.997764 0.061478 -0.026233
vn -0.997974 0.058513 -0.024967
vn -0.283729 -0.016152 0.958769
vn -0.283729 -0.016152 0.958769
vn -0.476584 -0.445342 -0.757983
vn -0.476584 -0.445342 -0.757983
vn 0.992927 0.109202 -0.046596
vn 0.992927 0.109202 -0.046596
vn 0.476584 -0.445342 -0.757983
vn 0.476584 -0.445342 -0.757983
vn 0.283729 -0.016152 0.958769
vn 0.283729 -0.016152 0.958769
vn -0.992927 0.109202 -0.046596
vn -0.992927 0.109202 -0.046596
vn 0.934340 -0.351597 -0.058204
vn 0.934340 -0.351597 -0.058204
vn 0.937162 -0.343927 -0.058662
vn 0.938543 -0.340102 -0.058888
vn -0.563807 -0.418735 0.711887
vn -0.563807 -0.418735 0.711887
vn -0.588008 -0.397975 0.704175
vn -0.575025 -0.409233 0.708431
vn -0.624779 0.219149 -0.749416
vn -0.624779 0.219149 -0.749416
vn -0.638464 0.233440 -0.733396
vn -0.640865 0.235978 -0.730484
vn 0.960613 -0.270708 -0.062771
vn 0.960613 -0.270708 -0.062771
vn -0.717811 -0.266709 0.643128
vn -0.717811 -0.266709 0.643128
vn -0.743555 0.356204 -0.565902
vn -0.743555 0.356204 -0.565902
vn -0.454061 -0.683258 0.571827
vn -0.454061 -0.683258 0.571827
vn -0.454061 -0.683258 0.571827
vn -0.454061 -0.683258 0.571827
vn -0.932803 -0.356615 -0.052004
vn -0.932803 -0.356615 -0.052004
vn -0.932803 -0.356615 -0.052004
vn -0.932803 -0.356615 -0.052004
vn 0.581624 0.241013 -0.776934
vn 0.581624 0.241013 -0.776934
vn 0.581624 0.241013 -0.776934
vn 0.581624 0.241013 -0.776934
vn 0.546250 -0.407964 0.731558
vn 0.546250 -0.407964 0.731558
vn 0.546250 -0.407964 0.731558
vn 0.546250 -0.407964 0.731558
vn -0.504448 -0.561953 0.655547
vn -0.504448 -0.561953 0.655547
vn -0.504448 -0.561953 0.655547
vn -0.504448 -0.561953 0.655547
vn -0.956086 -0.290023 -0.042276
vn -0.956086 -0.290023 -0.042276
vn -0.956086 -0.290023 -0.042276
vn -0.956086 -0.290023 -0.042276
vn 0.570804 0.356080 -0.739858
vn 0.570804 0.356080 -0.739858
vn 0.570804 0.356080 -0.739858
vn 0.570804 0.356080 -0.739858
vn 0.566547 -0.287104 0.772396
vn 0.566547 -0.287104 0.772396
vn 0.566547 -0.287104 0.772396
vn 0.566547 -0.287104 0.772396
s off
g pCube1
usemtl initialShadingGroup
f 8/15/1 25/33/2 18/25/3 11/18/4
f 3/3/5 19/26/6 20/27/7 5/5/8 26/35/9
f 5/5/10 20/27/11 21/28/12 6/7/13
s 1
f 14/21/14 22/29/15 31/41/16 17/24/17 30/40/18
s off
f 45/60/19 46/61/20 47/12/21
f 28/37/22 8/15/23 11/18/24 27/36/25
s 2
f 1/1/26 24/31/27 25/33/28 8/15/29
s off
f 2/2/30 4/4/31 10/17/32 9/16/33
s 3
f 19/26/34 3/3/35 11/18/36 18/25/37
s 4
f 29/38/38 1/1/39 8/15/40 28/37/41
s 5
f 3/3/42 26/34/43 27/36/44 11/18/45
s off
f 5/14/46 6/13/47 12/19/48 13/20/49
s 6
f 6/7/50 21/28/51 22/29/52 14/21/53
s off
f 7/8/54 2/10/55 16/23/56 15/22/57
s 7
f 24/32/58 1/9/59 17/24/60 23/30/61
s 8
f 1/9/62 29/39/63 30/40/64 17/24/65
s 3
f 4/4/66 19/26/34 18/25/37 10/17/67
s off
f 48/62/68 45/63/69 47/6/70
f 46/64/71 48/62/72 47/6/73
s 6
f 22/29/52 21/28/51 7/8/74 15/22/75
s 1
f 15/22/76 31/41/16 22/29/15
s 7
f 2/10/77 24/32/58 23/30/61 16/23/78
s 2
f 25/33/28 24/31/27 2/2/79 9/16/80
s off
f 67/83/81 68/84/82 69/85/83
s 5
f 26/34/43 5/14/84 13/20/85 27/36/44
s off
f 55/71/86 56/72/87 57/73/88
s 4
f 6/13/89 29/38/38 28/37/41 12/19/90
s 8
f 30/40/64 29/39/63 6/7/91 14/21/92
s off
f 84/99/93 83/100/94 85/101/95 86/102/96
s 1
f 17/24/17 32/42/97 23/30/98
f 17/24/17 31/41/16 32/42/97
s off
f 77/92/99 76/93/100 78/94/101
f 70/86/102 71/87/103 72/88/104
f 59/74/105 58/75/106 60/76/107
f 37/48/108 36/49/109 38/50/110 39/51/111 40/52/112
f 42/53/113 41/54/114 43/55/115 39/56/116 38/50/117
f 44/57/118 37/48/119 40/52/120 43/58/121 41/59/122
f 20/27/123 19/26/124 36/49/125 37/48/126
f 19/26/127 4/4/128 38/50/129 36/49/130
f 34/44/131 33/43/132 40/52/133 39/51/134
f 2/2/135 7/11/136 41/54/137 42/53/138
f 35/47/139 34/45/140 39/56/141 43/55/142
f 4/4/143 2/2/144 42/53/145 38/50/146
f 21/28/147 20/27/148 37/48/149 44/57/150
f 33/43/151 35/46/152 43/58/153 40/52/154
f 7/8/155 21/28/156 44/57/157 41/59/158
f 34/45/159 35/47/160 46/61/161 45/60/162
f 33/43/163 34/44/164 45/63/165 48/62/166
f 35/46/167 33/43/168 48/62/169 46/64/170
f 13/20/171 28/37/172 50/66/173 49/65/174
f 28/37/175 27/36/176 51/67/177 50/66/178
f 27/36/179 13/20/180 49/65/181 51/67/182
f 18/25/183 25/33/184 52/69/185 53/68/186
f 25/33/187 10/17/188 54/70/189 52/69/190
f 10/17/191 18/25/192 53/68/193 54/70/194
f 49/65/195 50/66/196 56/72/197 55/71/198
f 50/66/199 51/67/200 57/73/201 56/72/202
f 51/67/203 49/65/204 55/71/205 57/73/206
f 53/68/207 52/69/208 58/75/209 59/74/210
f 52/69/211 54/70/212 60/76/213 58/75/214
f 54/70/215 53/68/216 59/74/217 60/76/218
s 9
f 10/17/219 25/33/220 62/78/221 61/77/222
s 10
f 25/33/223 9/16/224 63/79/225 62/78/226
s 11
f 9/16/227 10/17/228 61/77/229 63/79/230
s 12
f 12/19/231 28/37/232 65/81/233 64/80/234
s 13
f 28/37/235 13/20/236 66/82/237 65/81/238
s 14
f 13/20/239 12/19/240 64/80/241 66/82/242
s 9
f 61/77/222 62/78/221 68/84/243 67/83/244
s 10
f 62/78/226 63/79/225 69/85/245 68/84/246
s 11
f 63/79/230 61/77/229 67/83/247 69/85/248
s 12
f 64/80/234 65/81/233 71/87/249 70/86/250
s 13
f 65/81/238 66/82/237 72/88/251 71/87/252
s 14
f 66/82/242 64/80/241 70/86/253 72/88/254
s 15
f 15/22/255 32/42/256 73/90/257 74/89/258
s 16
f 32/42/259 31/41/260 75/91/261 73/90/262
s 17
f 31/41/263 15/22/264 74/89/265 75/91/266
s 15
f 74/89/258 73/90/257 76/93/267 77/92/268
s 16
f 73/90/262 75/91/261 78/94/269 76/93/270
s 17
f 75/91/266 74/89/265 77/92/271 78/94/272
s off
f 23/30/273 32/42/274 79/96/275 80/95/276
f 32/42/277 15/22/278 81/97/279 79/96/280
f 15/22/281 16/23/282 82/98/283 81/97/284
f 16/23/285 23/30/286 80/95/287 82/98/288
f 80/95/289 79/96/290 83/100/291 84/99/292
f 79/96/293 81/97/294 85/101/295 83/100/296
f 81/97/297 82/98/298 86/102/299 85/101/300
f 82/98/301 80/95/302 84/99/303 86/102/304
