# This file uses centimeters as units for non-parametric coordinates.

mtllib Xiaoyan_concept_horror_monster_Candle_export_0001.mtl
g default
v 0.951057 -2.500000 -0.309017
v 0.809018 -2.500000 -0.587786
v 0.587786 -2.500000 -0.809017
v 0.309017 -2.500000 -0.951057
v 0.000000 -2.500000 -1.000000
v -0.309017 -2.500000 -0.951057
v -0.587785 -2.500000 -0.809017
v -0.809017 -2.500000 -0.587785
v -0.951057 -2.500000 -0.309017
v -1.000000 -2.500000 0.000000
v -0.951057 -2.500000 0.309017
v -0.809017 -2.500000 0.587785
v -0.587785 -2.500000 0.809017
v -0.309017 -2.500000 0.951057
v -0.000000 -2.500000 1.000000
v 0.309017 -2.500000 0.951057
v 0.587785 -2.500000 0.809017
v 0.809017 -2.500000 0.587785
v 0.951057 -2.500000 0.309017
v 1.000000 -2.500000 0.000000
v 0.951057 2.500000 -0.309017
v 0.809018 2.500000 -0.587786
v 0.587786 2.500000 -0.809017
v 0.309017 2.500000 -0.951057
v 0.000000 2.500000 -1.000000
v -0.309017 2.500000 -0.951057
v -0.587785 2.500000 -0.809017
v -0.809017 2.500000 -0.587785
v -0.951057 2.500000 -0.309017
v -1.000000 2.500000 0.000000
v -0.951057 2.500000 0.309017
v -0.809017 2.500000 0.587785
v -0.587785 2.500000 0.809017
v -0.309017 2.500000 0.951057
v -0.000000 2.500000 1.000000
v 0.309017 2.500000 0.951057
v 0.587785 2.500000 0.809017
v 0.809017 2.500000 0.587785
v 0.951057 2.500000 0.309017
v 1.000000 2.500000 0.000000
v 0.000000 -2.500000 0.000000
v 0.885013 2.596725 -0.287558
v 0.752837 2.596725 -0.546968
v 0.546968 2.596725 -0.752837
v 0.287558 2.596725 -0.885013
v -0.000000 2.596725 -0.930557
v -0.287558 2.596725 -0.885013
v -0.546968 2.596725 -0.752837
v -0.752837 2.596725 -0.546968
v -0.885013 2.596725 -0.287558
v -0.930557 2.596725 -0.000000
v -0.885013 2.596725 0.287558
v -0.752837 2.596725 0.546968
v -0.546968 2.596725 0.752837
v -0.287558 2.596725 0.885013
v -0.000000 2.596725 0.930557
v 0.287558 2.596725 0.885012
v 0.546968 2.596725 0.752837
v 0.752836 2.596725 0.546968
v 0.885012 2.596725 0.287558
v 0.930557 2.596725 -0.000000
v 0.026184 2.596725 -0.008508
v 0.022274 2.596725 -0.016183
v 0.016183 2.596725 -0.022274
v 0.008507 2.596725 -0.026184
v -0.000000 2.596725 -0.027531
v -0.008508 2.596725 -0.026184
v -0.016183 2.596725 -0.022274
v -0.022274 2.596725 -0.016183
v -0.026184 2.596725 -0.008508
v -0.027531 2.596725 -0.000000
v -0.026184 2.596725 0.008507
v -0.022274 2.596725 0.016183
v -0.016183 2.596725 0.022274
v -0.008508 2.596725 0.026184
v -0.000000 2.596725 0.027531
v 0.008507 2.596725 0.026184
v 0.016183 2.596725 0.022274
v 0.022274 2.596725 0.016183
v 0.026184 2.596725 0.008507
v 0.027531 2.596725 -0.000000
v 0.026184 3.149764 -0.008508
v 0.022274 3.149764 -0.016183
v -0.000000 3.149764 -0.000000
v 0.016183 3.149764 -0.022274
v 0.008507 3.149764 -0.026184
v -0.000000 3.149764 -0.027531
v -0.008508 3.149764 -0.026184
v -0.016183 3.149764 -0.022274
v -0.022274 3.149764 -0.016183
v -0.026184 3.149764 -0.008508
v -0.027531 3.149764 -0.000000
v -0.026184 3.149764 0.008507
v -0.022274 3.149764 0.016183
v -0.016183 3.149764 0.022274
v -0.008508 3.149764 0.026184
v -0.000000 3.149764 0.027531
v 0.008507 3.149764 0.026184
v 0.016183 3.149764 0.022274
v 0.022274 3.149764 0.016183
v 0.026184 3.149764 0.008507
v 0.027531 3.149764 -0.000000
vt 0.648603 0.107966
vt 0.626409 0.064408
vt 0.591842 0.029841
vt 0.548284 0.007647
vt 0.500000 -0.000000
vt 0.451716 0.007647
vt 0.408159 0.029841
vt 0.373591 0.064409
vt 0.351397 0.107966
vt 0.343750 0.156250
vt 0.351397 0.204534
vt 0.373591 0.248091
vt 0.408159 0.282659
vt 0.451716 0.304853
vt 0.500000 0.312500
vt 0.548284 0.304853
vt 0.591841 0.282659
vt 0.626409 0.248091
vt 0.648603 0.204534
vt 0.656250 0.156250
vt 0.375000 0.312500
vt 0.387500 0.312500
vt 0.400000 0.312500
vt 0.412500 0.312500
vt 0.425000 0.312500
vt 0.437500 0.312500
vt 0.450000 0.312500
vt 0.462500 0.312500
vt 0.475000 0.312500
vt 0.487500 0.312500
vt 0.500000 0.312500
vt 0.512500 0.312500
vt 0.525000 0.312500
vt 0.537500 0.312500
vt 0.550000 0.312500
vt 0.562500 0.312500
vt 0.575000 0.312500
vt 0.587500 0.312500
vt 0.600000 0.312500
vt 0.612500 0.312500
vt 0.625000 0.312500
vt 0.375000 0.688440
vt 0.387500 0.688440
vt 0.400000 0.688440
vt 0.412500 0.688440
vt 0.425000 0.688440
vt 0.437500 0.688440
vt 0.450000 0.688440
vt 0.462500 0.688440
vt 0.475000 0.688440
vt 0.487500 0.688440
vt 0.500000 0.688440
vt 0.512500 0.688440
vt 0.525000 0.688440
vt 0.537500 0.688440
vt 0.550000 0.688440
vt 0.562500 0.688440
vt 0.575000 0.688440
vt 0.587500 0.688440
vt 0.600000 0.688440
vt 0.612500 0.688440
vt 0.625000 0.688440
vt 0.648603 0.795466
vt 0.626409 0.751908
vt 0.591842 0.717341
vt 0.548284 0.695147
vt 0.500000 0.687500
vt 0.451716 0.695147
vt 0.408159 0.717341
vt 0.373591 0.751909
vt 0.351397 0.795466
vt 0.343750 0.843750
vt 0.351397 0.892034
vt 0.373591 0.935591
vt 0.408159 0.970159
vt 0.451716 0.992353
vt 0.500000 1.000000
vt 0.548284 0.992353
vt 0.591841 0.970159
vt 0.626409 0.935591
vt 0.648603 0.892034
vt 0.656250 0.843750
vt 0.500000 0.150000
vt 0.500000 0.837500
vt 0.648603 0.892034
vt 0.626409 0.935591
vt 0.591841 0.970159
vt 0.548284 0.992353
vt 0.500000 1.000000
vt 0.451716 0.992353
vt 0.408159 0.970159
vt 0.373591 0.935591
vt 0.351397 0.892034
vt 0.343750 0.843750
vt 0.351397 0.795466
vt 0.373591 0.751909
vt 0.408159 0.717341
vt 0.451716 0.695147
vt 0.500000 0.687500
vt 0.548284 0.695147
vt 0.591842 0.717341
vt 0.626409 0.751908
vt 0.648603 0.795466
vt 0.656250 0.843750
vt 0.648603 0.892034
vt 0.626409 0.935591
vt 0.591841 0.970159
vt 0.548284 0.992353
vt 0.500000 1.000000
vt 0.451716 0.992353
vt 0.408159 0.970159
vt 0.373591 0.935591
vt 0.351397 0.892034
vt 0.343750 0.843750
vt 0.351397 0.795466
vt 0.373591 0.751909
vt 0.408159 0.717341
vt 0.451716 0.695147
vt 0.500000 0.687500
vt 0.548284 0.695147
vt 0.591842 0.717341
vt 0.626409 0.751908
vt 0.648603 0.795466
vt 0.656250 0.843750
vt 0.648603 0.892034
vt 0.626409 0.935591
vt 0.591841 0.970159
vt 0.548284 0.992353
vt 0.500000 1.000000
vt 0.451716 0.992353
vt 0.408159 0.970159
vt 0.373591 0.935591
vt 0.351397 0.892034
vt 0.343750 0.843750
vt 0.351397 0.795466
vt 0.373591 0.751909
vt 0.408159 0.717341
vt 0.451716 0.695147
vt 0.500000 0.687500
vt 0.548284 0.695147
vt 0.591842 0.717341
vt 0.626409 0.751908
vt 0.648603 0.795466
vt 0.656250 0.843750
vn 0.951057 0.000000 -0.309016
vn 0.809017 0.000000 -0.587785
vn 0.809017 0.000000 -0.587785
vn 0.951057 0.000000 -0.309016
vn 0.587785 0.000000 -0.809017
vn 0.587785 0.000000 -0.809017
vn 0.309017 0.000000 -0.951057
vn 0.309017 0.000000 -0.951057
vn -0.000000 0.000000 -1.000000
vn -0.000000 0.000000 -1.000000
vn -0.309017 0.000000 -0.951056
vn -0.309017 0.000000 -0.951056
vn -0.587785 0.000000 -0.809017
vn -0.587785 0.000000 -0.809017
vn -0.809017 0.000000 -0.587785
vn -0.809017 0.000000 -0.587785
vn -0.951057 0.000000 -0.309017
vn -0.951057 0.000000 -0.309017
vn -1.000000 0.000000 0.000000
vn -1.000000 0.000000 0.000000
vn -0.951057 0.000000 0.309017
vn -0.951057 0.000000 0.309017
vn -0.809017 0.000000 0.587785
vn -0.809017 0.000000 0.587785
vn -0.587785 0.000000 0.809017
vn -0.587785 0.000000 0.809017
vn -0.309017 0.000000 0.951057
vn -0.309017 0.000000 0.951057
vn 0.000000 0.000000 1.000000
vn 0.000000 0.000000 1.000000
vn 0.309017 0.000000 0.951057
vn 0.309017 0.000000 0.951057
vn 0.587785 0.000000 0.809017
vn 0.587785 0.000000 0.809017
vn 0.809017 0.000000 0.587785
vn 0.809017 0.000000 0.587785
vn 0.951057 0.000000 0.309017
vn 0.951057 0.000000 0.309017
vn 1.000000 0.000000 0.000001
vn 1.000000 0.000000 0.000001
vn 0.000000 -1.000000 0.000000
vn 0.000000 -1.000000 0.000000
vn 0.000000 -1.000000 0.000000
vn 0.000000 -1.000000 -0.000000
vn 0.000000 -1.000000 -0.000000
vn 0.000000 -1.000000 0.000000
vn 0.000000 -1.000000 0.000000
vn 0.000000 -1.000000 -0.000001
vn 0.000000 -1.000000 -0.000000
vn 0.000000 -1.000000 0.000001
vn 0.000000 -1.000000 0.000000
vn 0.000000 -1.000000 0.000000
vn 0.000000 -1.000000 0.000000
vn 0.000000 -1.000000 -0.000000
vn 0.000000 -1.000000 -0.000000
vn 0.000000 -1.000000 -0.000000
vn 0.000000 -1.000000 0.000000
vn 0.000000 -1.000000 0.000000
vn 0.000000 -1.000000 0.000001
vn 0.000000 -1.000000 0.000001
vn 0.000000 -1.000000 0.000000
vn 0.000000 1.000000 0.000000
vn 0.000000 1.000000 0.000000
vn 0.000000 1.000000 -0.000000
vn 0.000000 1.000000 0.000000
vn 0.000000 1.000000 0.000000
vn 0.000000 1.000000 0.000000
vn 0.000000 1.000000 0.000008
vn 0.000000 1.000000 0.000024
vn 0.000000 1.000000 0.000016
vn 0.000000 1.000000 0.000000
vn 0.000000 1.000000 0.000000
vn 0.000000 1.000000 0.000000
vn 0.000000 1.000000 0.000000
vn 0.000000 1.000000 -0.000016
vn 0.000000 1.000000 -0.000008
vn 0.000000 1.000000 0.000003
vn 0.000000 1.000000 -0.000005
vn 0.000000 1.000000 -0.000016
vn 0.000000 1.000000 -0.000016
vn 0.000000 1.000000 0.000000
vn 0.000000 1.000000 0.000000
vn 0.726819 0.578435 -0.370333
vn 0.726819 0.578435 -0.370333
vn 0.726819 0.578435 -0.370333
vn 0.726819 0.578435 -0.370333
vn 0.576806 0.578436 -0.576807
vn 0.576806 0.578436 -0.576807
vn 0.576806 0.578436 -0.576807
vn 0.576806 0.578436 -0.576807
vn 0.370332 0.578435 -0.726820
vn 0.370332 0.578435 -0.726820
vn 0.370332 0.578435 -0.726820
vn 0.370332 0.578435 -0.726820
vn 0.127608 0.578436 -0.805685
vn 0.127608 0.578436 -0.805685
vn 0.127608 0.578436 -0.805685
vn 0.127608 0.578436 -0.805685
vn -0.127608 0.578435 -0.805685
vn -0.127608 0.578435 -0.805685
vn -0.127608 0.578435 -0.805685
vn -0.127608 0.578435 -0.805685
vn -0.370333 0.578436 -0.726819
vn -0.370333 0.578436 -0.726819
vn -0.370333 0.578436 -0.726819
vn -0.370333 0.578436 -0.726819
vn -0.576807 0.578435 -0.576807
vn -0.576807 0.578435 -0.576807
vn -0.576807 0.578435 -0.576807
vn -0.576807 0.578435 -0.576807
vn -0.726819 0.578436 -0.370333
vn -0.726819 0.578436 -0.370333
vn -0.726819 0.578436 -0.370333
vn -0.726819 0.578436 -0.370333
vn -0.805686 0.578435 -0.127608
vn -0.805686 0.578435 -0.127608
vn -0.805685 0.578435 -0.127608
vn -0.805685 0.578435 -0.127608
vn -0.805685 0.578435 0.127608
vn -0.805685 0.578435 0.127608
vn -0.805685 0.578435 0.127608
vn -0.805685 0.578435 0.127608
vn -0.726820 0.578435 0.370333
vn -0.726819 0.578435 0.370333
vn -0.726819 0.578435 0.370333
vn -0.726819 0.578435 0.370333
vn -0.576807 0.578436 0.576807
vn -0.576807 0.578436 0.576807
vn -0.576807 0.578436 0.576807
vn -0.576807 0.578436 0.576807
vn -0.370333 0.578435 0.726820
vn -0.370333 0.578435 0.726820
vn -0.370333 0.578435 0.726820
vn -0.370333 0.578435 0.726820
vn -0.127608 0.578436 0.805685
vn -0.127608 0.578436 0.805685
vn -0.127608 0.578436 0.805685
vn -0.127608 0.578436 0.805685
vn 0.127608 0.578436 0.805685
vn 0.127608 0.578435 0.805685
vn 0.127608 0.578436 0.805685
vn 0.127608 0.578436 0.805685
vn 0.370333 0.578436 0.726819
vn 0.370333 0.578436 0.726819
vn 0.370333 0.578436 0.726819
vn 0.370333 0.578436 0.726819
vn 0.576807 0.578435 0.576807
vn 0.576807 0.578435 0.576807
vn 0.576807 0.578435 0.576807
vn 0.576807 0.578435 0.576807
vn 0.726819 0.578436 0.370333
vn 0.726819 0.578436 0.370333
vn 0.726819 0.578436 0.370333
vn 0.726819 0.578436 0.370333
vn 0.805685 0.578435 0.127608
vn 0.805685 0.578435 0.127608
vn 0.805685 0.578435 0.127608
vn 0.805685 0.578435 0.127608
vn 0.805685 0.578436 -0.127607
vn 0.805685 0.578436 -0.127607
vn 0.805685 0.578436 -0.127607
vn 0.805685 0.578436 -0.127607
vn 0.000000 1.000000 0.000000
vn 0.000000 1.000000 0.000000
vn 0.000000 1.000000 0.000000
vn 0.000000 1.000000 0.000000
vn 0.000000 1.000000 0.000000
vn 0.000000 1.000000 0.000000
vn 0.000000 1.000000 0.000000
vn 0.000000 1.000000 0.000000
vn 0.000000 1.000000 0.000000
vn 0.000000 1.000000 0.000000
vn 0.000000 1.000000 0.000000
vn 0.000000 1.000000 0.000000
vn 0.000000 1.000000 0.000000
vn 0.000000 1.000000 0.000000
vn 0.000000 1.000000 0.000000
vn 0.000000 1.000000 0.000000
vn 0.000000 1.000000 0.000000
vn 0.000000 1.000000 0.000000
vn 0.000000 1.000000 0.000000
vn 0.000000 1.000000 0.000000
vn 0.000000 1.000000 -0.000000
vn 0.000000 1.000000 -0.000000
vn 0.000000 1.000000 -0.000000
vn 0.000000 1.000000 -0.000000
vn 0.000000 1.000000 0.000001
vn 0.000000 1.000000 0.000001
vn 0.000000 1.000000 0.000001
vn 0.000000 1.000000 0.000001
vn 0.000000 1.000000 0.000000
vn 0.000000 1.000000 0.000000
vn 0.000000 1.000000 0.000000
vn 0.000000 1.000000 0.000000
vn 0.000000 1.000000 0.000000
vn 0.000000 1.000000 0.000000
vn 0.000000 1.000000 0.000000
vn 0.000000 1.000000 0.000000
vn 0.000000 1.000000 0.000000
vn 0.000000 1.000000 0.000000
vn 0.000000 1.000000 0.000000
vn 0.000000 1.000000 0.000000
vn 0.000000 1.000000 0.000000
vn 0.000000 1.000000 0.000000
vn 0.000000 1.000000 0.000000
vn 0.000000 1.000000 0.000000
vn 0.000000 1.000000 0.000000
vn 0.000000 1.000000 0.000000
vn 0.000000 1.000000 0.000000
vn 0.000000 1.000000 0.000000
vn 0.000000 1.000000 0.000000
vn 0.000000 1.000000 0.000000
vn 0.000000 1.000000 0.000000
vn 0.000000 1.000000 0.000000
vn 0.000000 1.000000 0.000000
vn 0.000000 1.000000 0.000000
vn 0.000000 1.000000 0.000000
vn 0.000000 1.000000 0.000000
vn 0.000000 1.000000 0.000000
vn 0.000000 1.000000 0.000000
vn 0.000000 1.000000 0.000000
vn 0.000000 1.000000 0.000000
vn 0.000000 1.000000 0.000000
vn 0.000000 1.000000 0.000000
vn 0.000000 1.000000 0.000000
vn 0.000000 1.000000 0.000000
vn 0.000000 1.000000 -0.000001
vn 0.000000 1.000000 -0.000001
vn 0.000000 1.000000 -0.000001
vn 0.000000 1.000000 -0.000001
vn 0.000000 1.000000 0.000000
vn 0.000000 1.000000 0.000000
vn 0.000000 1.000000 0.000000
vn 0.000000 1.000000 0.000000
vn 0.000000 1.000000 0.000000
vn 0.000000 1.000000 0.000000
vn 0.000000 1.000000 0.000000
vn 0.000000 1.000000 0.000000
vn 0.000000 1.000000 0.000000
vn 0.000000 1.000000 0.000000
vn 0.000000 1.000000 0.000000
vn 0.000000 1.000000 0.000000
vn 0.891046 0.000000 -0.453913
vn 0.891046 0.000000 -0.453913
vn 0.891046 0.000000 -0.453913
vn 0.891046 0.000000 -0.453913
vn 0.707107 0.000000 -0.707107
vn 0.707107 0.000000 -0.707107
vn 0.707107 0.000000 -0.707107
vn 0.707107 0.000000 -0.707107
vn 0.453913 0.000000 -0.891046
vn 0.453913 0.000000 -0.891046
vn 0.453913 0.000000 -0.891046
vn 0.453913 0.000000 -0.891046
vn 0.156403 0.000000 -0.987693
vn 0.156403 0.000000 -0.987693
vn 0.156403 0.000000 -0.987693
vn 0.156403 0.000000 -0.987693
vn -0.156403 0.000000 -0.987693
vn -0.156403 0.000000 -0.987693
vn -0.156403 0.000000 -0.987693
vn -0.156403 0.000000 -0.987693
vn -0.453913 0.000000 -0.891046
vn -0.453913 0.000000 -0.891046
vn -0.453913 0.000000 -0.891046
vn -0.453913 0.000000 -0.891046
vn -0.707107 0.000000 -0.707107
vn -0.707107 0.000000 -0.707107
vn -0.707107 0.000000 -0.707107
vn -0.707107 0.000000 -0.707107
vn -0.891046 0.000000 -0.453913
vn -0.891046 0.000000 -0.453913
vn -0.891046 0.000000 -0.453913
vn -0.891046 0.000000 -0.453913
vn -0.987693 0.000000 -0.156403
vn -0.987693 0.000000 -0.156403
vn -0.987693 0.000000 -0.156403
vn -0.987693 0.000000 -0.156403
vn -0.987693 0.000000 0.156403
vn -0.987693 0.000000 0.156403
vn -0.987693 0.000000 0.156403
vn -0.987693 0.000000 0.156403
vn -0.891046 0.000000 0.453913
vn -0.891046 0.000000 0.453913
vn -0.891046 0.000000 0.453913
vn -0.891046 0.000000 0.453913
vn -0.707107 0.000000 0.707107
vn -0.707107 0.000000 0.707107
vn -0.707107 0.000000 0.707107
vn -0.707107 0.000000 0.707107
vn -0.453913 0.000000 0.891046
vn -0.453913 0.000000 0.891046
vn -0.453913 0.000000 0.891046
vn -0.453913 0.000000 0.891046
vn -0.156403 0.000000 0.987693
vn -0.156403 0.000000 0.987693
vn -0.156403 0.000000 0.987693
vn -0.156403 0.000000 0.987693
vn 0.156403 0.000000 0.987693
vn 0.156403 0.000000 0.987693
vn 0.156403 0.000000 0.987693
vn 0.156403 0.000000 0.987693
vn 0.453913 0.000000 0.891046
vn 0.453913 0.000000 0.891046
vn 0.453913 0.000000 0.891046
vn 0.453913 0.000000 0.891046
vn 0.707107 0.000000 0.707107
vn 0.707107 0.000000 0.707107
vn 0.707107 0.000000 0.707107
vn 0.707107 0.000000 0.707107
vn 0.891046 0.000000 0.453913
vn 0.891046 0.000000 0.453913
vn 0.891046 0.000000 0.453913
vn 0.891046 0.000000 0.453913
vn 0.987693 0.000000 0.156403
vn 0.987693 0.000000 0.156403
vn 0.987693 0.000000 0.156403
vn 0.987693 0.000000 0.156403
vn 0.987693 0.000000 -0.156403
vn 0.987693 0.000000 -0.156403
vn 0.987693 0.000000 -0.156403
vn 0.987693 0.000000 -0.156403
s 1
g pCylinder1
usemtl initialShadingGroup
f 1/21/1 2/22/2 22/43/3 21/42/4
f 2/22/2 3/23/5 23/44/6 22/43/3
f 3/23/5 4/24/7 24/45/8 23/44/6
f 4/24/7 5/25/9 25/46/10 24/45/8
f 5/25/9 6/26/11 26/47/12 25/46/10
f 6/26/11 7/27/13 27/48/14 26/47/12
f 7/27/13 8/28/15 28/49/16 27/48/14
f 8/28/15 9/29/17 29/50/18 28/49/16
f 9/29/17 10/30/19 30/51/20 29/50/18
f 10/30/19 11/31/21 31/52/22 30/51/20
f 11/31/21 12/32/23 32/53/24 31/52/22
f 12/32/23 13/33/25 33/54/26 32/53/24
f 13/33/25 14/34/27 34/55/28 33/54/26
f 14/34/27 15/35/29 35/56/30 34/55/28
f 15/35/29 16/36/31 36/57/32 35/56/30
f 16/36/31 17/37/33 37/58/34 36/57/32
f 17/37/33 18/38/35 38/59/36 37/58/34
f 18/38/35 19/39/37 39/60/38 38/59/36
f 19/39/37 20/40/39 40/61/40 39/60/38
f 20/40/39 1/41/1 21/62/4 40/61/40
s 2
f 2/2/41 1/1/42 41/83/43
f 3/3/44 2/2/41 41/83/43
f 4/4/45 3/3/44 41/83/43
f 5/5/46 4/4/45 41/83/43
f 6/6/47 5/5/46 41/83/43
f 7/7/48 6/6/47 41/83/43
f 8/8/49 7/7/48 41/83/43
f 9/9/50 8/8/49 41/83/43
f 10/10/51 9/9/50 41/83/43
f 11/11/52 10/10/51 41/83/43
f 12/12/53 11/11/52 41/83/43
f 13/13/54 12/12/53 41/83/43
f 14/14/55 13/13/54 41/83/43
f 15/15/56 14/14/55 41/83/43
f 16/16/57 15/15/56 41/83/43
f 17/17/58 16/16/57 41/83/43
f 18/18/59 17/17/58 41/83/43
f 19/19/60 18/18/59 41/83/43
f 20/20/61 19/19/60 41/83/43
f 1/1/42 20/20/61 41/83/43
s 3
f 82/125/62 83/126/63 84/84/64
f 83/126/63 85/127/65 84/84/64
f 85/127/65 86/128/66 84/84/64
f 86/128/66 87/129/67 84/84/64
f 87/129/67 88/130/68 84/84/64
f 88/130/68 89/131/69 84/84/64
f 89/131/69 90/132/70 84/84/64
f 90/132/70 91/133/71 84/84/64
f 91/133/71 92/134/72 84/84/64
f 92/134/72 93/135/73 84/84/64
f 93/135/73 94/136/74 84/84/64
f 94/136/74 95/137/75 84/84/64
f 95/137/75 96/138/76 84/84/64
f 96/138/76 97/139/77 84/84/64
f 97/139/77 98/140/78 84/84/64
f 98/140/78 99/141/79 84/84/64
f 99/141/79 100/142/80 84/84/64
f 100/142/80 101/143/81 84/84/64
f 101/143/81 102/144/82 84/84/64
f 102/144/82 82/125/62 84/84/64
s off
f 21/81/83 22/80/84 43/86/85 42/85/86
f 22/80/87 23/79/88 44/87/89 43/86/90
f 23/79/91 24/78/92 45/88/93 44/87/94
f 24/78/95 25/77/96 46/89/97 45/88/98
f 25/77/99 26/76/100 47/90/101 46/89/102
f 26/76/103 27/75/104 48/91/105 47/90/106
f 27/75/107 28/74/108 49/92/109 48/91/110
f 28/74/111 29/73/112 50/93/113 49/92/114
f 29/73/115 30/72/116 51/94/117 50/93/118
f 30/72/119 31/71/120 52/95/121 51/94/122
f 31/71/123 32/70/124 53/96/125 52/95/126
f 32/70/127 33/69/128 54/97/129 53/96/130
f 33/69/131 34/68/132 55/98/133 54/97/134
f 34/68/135 35/67/136 56/99/137 55/98/138
f 35/67/139 36/66/140 57/100/141 56/99/142
f 36/66/143 37/65/144 58/101/145 57/100/146
f 37/65/147 38/64/148 59/102/149 58/101/150
f 38/64/151 39/63/152 60/103/153 59/102/154
f 39/63/155 40/82/156 61/104/157 60/103/158
f 40/82/159 21/81/160 42/85/161 61/104/162
f 42/85/163 43/86/164 63/106/165 62/105/166
f 43/86/167 44/87/168 64/107/169 63/106/170
f 44/87/171 45/88/172 65/108/173 64/107/174
f 45/88/175 46/89/176 66/109/177 65/108/178
f 46/89/179 47/90/180 67/110/181 66/109/182
f 47/90/183 48/91/184 68/111/185 67/110/186
f 48/91/187 49/92/188 69/112/189 68/111/190
f 49/92/191 50/93/192 70/113/193 69/112/194
f 50/93/195 51/94/196 71/114/197 70/113/198
f 51/94/199 52/95/200 72/115/201 71/114/202
f 52/95/203 53/96/204 73/116/205 72/115/206
f 53/96/207 54/97/208 74/117/209 73/116/210
f 54/97/211 55/98/212 75/118/213 74/117/214
f 55/98/215 56/99/216 76/119/217 75/118/218
f 56/99/219 57/100/220 77/120/221 76/119/222
f 57/100/223 58/101/224 78/121/225 77/120/226
f 58/101/227 59/102/228 79/122/229 78/121/230
f 59/102/231 60/103/232 80/123/233 79/122/234
f 60/103/235 61/104/236 81/124/237 80/123/238
f 61/104/239 42/85/240 62/105/241 81/124/242
f 62/105/243 63/106/244 83/126/245 82/125/246
f 63/106/247 64/107/248 85/127/249 83/126/250
f 64/107/251 65/108/252 86/128/253 85/127/254
f 65/108/255 66/109/256 87/129/257 86/128/258
f 66/109/259 67/110/260 88/130/261 87/129/262
f 67/110/263 68/111/264 89/131/265 88/130/266
f 68/111/267 69/112/268 90/132/269 89/131/270
f 69/112/271 70/113/272 91/133/273 90/132/274
f 70/113/275 71/114/276 92/134/277 91/133/278
f 71/114/279 72/115/280 93/135/281 92/134/282
f 72/115/283 73/116/284 94/136/285 93/135/286
f 73/116/287 74/117/288 95/137/289 94/136/290
f 74/117/291 75/118/292 96/138/293 95/137/294
f 75/118/295 76/119/296 97/139/297 96/138/298
f 76/119/299 77/120/300 98/140/301 97/139/302
f 77/120/303 78/121/304 99/141/305 98/140/306
f 78/121/307 79/122/308 100/142/309 99/141/310
f 79/122/311 80/123/312 101/143/313 100/142/314
f 80/123/315 81/124/316 102/144/317 101/143/318
f 81/124/319 62/105/320 82/125/321 102/144/322
